OxygenSans-Bold-FF.ufo
<glyph name="ampersand" format="1">
  <advance width="1261"/>
  <unicode hex="0026"/>
  <outline>
    <contour>
      <point x="517" y="-1" type="curve" smooth="yes"/>
      <point x="663" y="-1"/>
      <point x="802" y="49"/>
      <point x="917" y="134" type="curve"/>
      <point x="1041" y="4" type="line"/>
      <point x="1041" y="4"/>
      <point x="1249" y="57"/>
      <point x="1249" y="57" type="curve"/>
      <point x="1060" y="256" type="line"/>
      <point x="1119" y="322"/>
      <point x="1176" y="409"/>
      <point x="1216" y="488" type="curve"/>
      <point x="1216" y="488"/>
      <point x="1047" y="597"/>
      <point x="1047" y="597" type="curve"/>
      <point x="1013" y="533"/>
      <point x="964" y="456"/>
      <point x="919" y="403" type="curve"/>
      <point x="627" y="725" type="line"/>
      <point x="765" y="795"/>
      <point x="903" y="898"/>
      <point x="903" y="1068" type="curve" smooth="yes"/>
      <point x="903" y="1275"/>
      <point x="712" y="1359"/>
      <point x="544" y="1359" type="curve" smooth="yes"/>
      <point x="363" y="1359"/>
      <point x="198" y="1263"/>
      <point x="198" y="1052" type="curve" smooth="yes"/>
      <point x="198" y="936"/>
      <point x="271" y="851"/>
      <point x="339" y="772" type="curve"/>
      <point x="186" y="688"/>
      <point x="45" y="585"/>
      <point x="45" y="389" type="curve" smooth="yes"/>
      <point x="45" y="111"/>
      <point x="274" y="-1"/>
    </contour>
    <contour>
      <point x="522" y="178" type="curve" smooth="yes"/>
      <point x="380" y="178"/>
      <point x="270" y="247"/>
      <point x="270" y="399" type="curve" smooth="yes"/>
      <point x="270" y="518"/>
      <point x="352" y="574"/>
      <point x="452" y="630" type="curve"/>
      <point x="499" y="578"/>
      <point x="735" y="320"/>
      <point x="784" y="266" type="curve"/>
      <point x="712" y="210"/>
      <point x="617" y="178"/>
    </contour>
    <contour>
      <point x="511" y="863" type="curve"/>
      <point x="454" y="924"/>
      <point x="413" y="984"/>
      <point x="413" y="1061" type="curve" smooth="yes"/>
      <point x="413" y="1150"/>
      <point x="468" y="1189"/>
      <point x="551" y="1189" type="curve" smooth="yes"/>
      <point x="628" y="1189"/>
      <point x="684" y="1151"/>
      <point x="684" y="1067" type="curve" smooth="yes"/>
      <point x="684" y="968"/>
      <point x="598" y="911"/>
    </contour>
  </outline>
</glyph>
<glyph name="parenright" format="1">
  <advance width="570"/>
  <unicode hex="0029"/>
  <outline>
    <contour>
      <point x="258" y="-245" type="line"/>
      <point x="26" y="-245" type="line"/>
      <point x="35" y="-226" type="line"/>
      <point x="129" y="-90"/>
      <point x="273" y="238"/>
      <point x="273" y="552" type="curve" smooth="yes"/>
      <point x="273" y="868"/>
      <point x="133" y="1201"/>
      <point x="34" y="1343" type="curve"/>
      <point x="25" y="1362" type="line"/>
      <point x="258" y="1362" type="line"/>
      <point x="260" y="1354" type="line"/>
      <point x="410" y="1140"/>
      <point x="514" y="868"/>
      <point x="514" y="550" type="curve" smooth="yes"/>
      <point x="514" y="233"/>
      <point x="411" y="-28"/>
      <point x="260" y="-237" type="curve"/>
    </contour>
  </outline>
</glyph>
<glyph name="asterisk" format="1">
  <advance width="965"/>
  <unicode hex="002A"/>
  <outline>
    <contour>
      <point x="645" y="498" type="line"/>
      <point x="490" y="783" type="line"/>
      <point x="342" y="500" type="line"/>
      <point x="141" y="610" type="line"/>
      <point x="354" y="878" type="line"/>
      <point x="48" y="946" type="line"/>
      <point x="112" y="1159" type="line"/>
      <point x="411" y="1035" type="line"/>
      <point x="380" y="1378" type="line"/>
      <point x="601" y="1378" type="line"/>
      <point x="572" y="1035" type="line"/>
      <point x="874" y="1159" type="line"/>
      <point x="935" y="946" type="line"/>
      <point x="628" y="878" type="line"/>
      <point x="666" y="830"/>
      <point x="820" y="642"/>
      <point x="835" y="621" type="curve"/>
      <point x="841" y="610" type="line"/>
      <point x="832" y="605" type="line" smooth="yes"/>
      <point x="820" y="598"/>
      <point x="663" y="510"/>
      <point x="653" y="504" type="curve"/>
    </contour>
  </outline>
</glyph>
<glyph name="hyphen" format="1">
  <advance width="594"/>
  <unicode hex="002D"/>
  <outline>
    <contour>
      <point x="57" y="406" type="line"/>
      <point x="57" y="606" type="line"/>
      <point x="553" y="606" type="line"/>
      <point x="553" y="406" type="line"/>
    </contour>
  </outline>
</glyph>
<glyph name="zero" format="1">
  <advance width="1139"/>
  <unicode hex="0030"/>
  <outline>
    <contour>
      <point x="569" y="206" type="curve" smooth="yes"/>
      <point x="754" y="206"/>
      <point x="803" y="438"/>
      <point x="803" y="687" type="curve" smooth="yes"/>
      <point x="803" y="933"/>
      <point x="754" y="1159"/>
      <point x="569" y="1159" type="curve" smooth="yes"/>
      <point x="386" y="1159"/>
      <point x="336" y="935"/>
      <point x="334" y="690" type="curve"/>
      <point x="334" y="440"/>
      <point x="384" y="206"/>
    </contour>
    <contour>
      <point x="569" y="1" type="curve" smooth="yes"/>
      <point x="201" y="1"/>
      <point x="74" y="327"/>
      <point x="74" y="680" type="curve" smooth="yes"/>
      <point x="74" y="1041"/>
      <point x="205" y="1363"/>
      <point x="569" y="1363" type="curve" smooth="yes"/>
      <point x="935" y="1363"/>
      <point x="1065" y="1038"/>
      <point x="1065" y="680" type="curve" smooth="yes"/>
      <point x="1065" y="327"/>
      <point x="938" y="1"/>
    </contour>
  </outline>
</glyph>
<glyph name="semicolon" format="1">
  <advance width="454"/>
  <unicode hex="003B"/>
  <outline>
    <contour>
      <point x="92" y="-287" type="line"/>
      <point x="142" y="248" type="line"/>
      <point x="366" y="248" type="line"/>
      <point x="250" y="-287" type="line"/>
    </contour>
    <contour>
      <point x="108" y="767" type="line"/>
      <point x="108" y="1022" type="line"/>
      <point x="363" y="1022" type="line"/>
      <point x="363" y="767" type="line"/>
    </contour>
  </outline>
</glyph>
<glyph name="equal" format="1">
  <advance width="1052"/>
  <unicode hex="003D"/>
  <outline>
    <contour>
      <point x="76" y="326" type="line"/>
      <point x="995" y="326" type="line"/>
      <point x="995" y="518" type="line"/>
      <point x="76" y="518" type="line"/>
    </contour>
    <contour>
      <point x="76" y="680" type="line"/>
      <point x="995" y="680" type="line"/>
      <point x="995" y="881" type="line"/>
      <point x="76" y="881" type="line"/>
    </contour>
  </outline>
</glyph>
<glyph name="A" format="1">
  <advance width="1233"/>
  <unicode hex="0041"/>
  <outline>
    <contour>
      <point x="481" y="577" type="line"/>
      <point x="503" y="647"/>
      <point x="590" y="957"/>
      <point x="621" y="1054" type="curve"/>
      <point x="653" y="950"/>
      <point x="739" y="642"/>
      <point x="759" y="577" type="curve"/>
    </contour>
    <contour>
      <point x="-2" y="0" type="line"/>
      <point x="299" y="0" type="line"/>
      <point x="419" y="368" type="line"/>
      <point x="819" y="368" type="line"/>
      <point x="946" y="0" type="line"/>
      <point x="1235" y="0" type="line"/>
      <point x="786" y="1342" type="line"/>
      <point x="454" y="1342" type="line"/>
    </contour>
    <contour>
      <point x="617" y="1342" type="move" name="top"/>
    </contour>
    <contour>
      <point x="1110" y="10" type="move" name="ogonek"/>
    </contour>
  </outline>
</glyph>
<glyph name="B" format="1">
  <advance width="1247"/>
  <unicode hex="0042"/>
  <outline>
    <contour>
      <point x="144" y="0" type="line"/>
      <point x="680" y="0" type="line" smooth="yes"/>
      <point x="981" y="0"/>
      <point x="1178" y="133"/>
      <point x="1178" y="393" type="curve" smooth="yes"/>
      <point x="1178" y="551"/>
      <point x="1086" y="665"/>
      <point x="943" y="715" type="curve"/>
      <point x="1087" y="783"/>
      <point x="1130" y="919"/>
      <point x="1130" y="1000" type="curve" smooth="yes"/>
      <point x="1130" y="1254"/>
      <point x="941" y="1336"/>
      <point x="611" y="1336" type="curve" smooth="yes"/>
      <point x="144" y="1336" type="line"/>
    </contour>
    <contour>
      <point x="432" y="216" type="line"/>
      <point x="432" y="604" type="line"/>
      <point x="622" y="604" type="line" smooth="yes"/>
      <point x="807" y="604"/>
      <point x="890" y="554"/>
      <point x="890" y="412" type="curve" smooth="yes"/>
      <point x="890" y="270"/>
      <point x="805" y="216"/>
      <point x="628" y="216" type="curve" smooth="yes"/>
    </contour>
    <contour>
      <point x="432" y="793" type="line"/>
      <point x="432" y="1126" type="line"/>
      <point x="577" y="1126" type="line" smooth="yes"/>
      <point x="763" y="1126"/>
      <point x="850" y="1093"/>
      <point x="850" y="956" type="curve" smooth="yes"/>
      <point x="850" y="834"/>
      <point x="776" y="793"/>
      <point x="625" y="793" type="curve" smooth="yes"/>
    </contour>
  </outline>
</glyph>
<glyph name="C" format="1">
  <advance width="1176"/>
  <unicode hex="0043"/>
  <outline>
    <contour>
      <point x="742" y="-16" type="curve" smooth="yes"/>
      <point x="887" y="-16"/>
      <point x="979" y="13"/>
      <point x="1103" y="75" type="curve"/>
      <point x="1048" y="293" type="line"/>
      <point x="948" y="236"/>
      <point x="856" y="210"/>
      <point x="757" y="213" type="curve" smooth="yes"/>
      <point x="522" y="220"/>
      <point x="374" y="380"/>
      <point x="374" y="671" type="curve" smooth="yes"/>
      <point x="374" y="963"/>
      <point x="552" y="1112"/>
      <point x="719" y="1125" type="curve" smooth="yes"/>
      <point x="837" y="1134"/>
      <point x="950" y="1090"/>
      <point x="1046" y="1035" type="curve"/>
      <point x="1129" y="1249" type="line"/>
      <point x="1007" y="1320"/>
      <point x="872" y="1359"/>
      <point x="733" y="1359" type="curve" smooth="yes"/>
      <point x="358" y="1359"/>
      <point x="86" y="1114"/>
      <point x="86" y="677" type="curve" smooth="yes"/>
      <point x="86" y="236"/>
      <point x="360" y="-16"/>
    </contour>
    <contour>
      <point x="588" y="1342" type="move" name="top"/>
    </contour>
    <contour>
      <point x="588" y="0" type="move" name="bottom"/>
    </contour>
  </outline>
</glyph>
<glyph name="D" format="1">
  <advance width="1391"/>
  <unicode hex="0044"/>
  <outline>
    <contour>
      <point x="437" y="1122" type="line"/>
      <point x="437" y="220" type="line"/>
      <point x="584" y="220" type="line" smooth="yes"/>
      <point x="874" y="220"/>
      <point x="1014" y="377"/>
      <point x="1014" y="671" type="curve" smooth="yes"/>
      <point x="1014" y="992"/>
      <point x="866" y="1122"/>
      <point x="558" y="1122" type="curve" smooth="yes"/>
    </contour>
    <contour>
      <point x="149" y="0" type="line"/>
      <point x="149" y="1342" type="line"/>
      <point x="547" y="1342" type="line" smooth="yes"/>
      <point x="996" y="1342"/>
      <point x="1301" y="1130"/>
      <point x="1301" y="676" type="curve" smooth="yes"/>
      <point x="1301" y="238"/>
      <point x="1013" y="0"/>
      <point x="570" y="0" type="curve" smooth="yes"/>
    </contour>
    <contour>
      <point x="696" y="1342" type="move" name="top"/>
    </contour>
    <contour>
      <point x="696" y="671" type="move" name="center"/>
    </contour>
  </outline>
</glyph>
<glyph name="E" format="1">
  <advance width="1076"/>
  <unicode hex="0045"/>
  <outline>
    <contour>
      <point x="432" y="1126" type="line"/>
      <point x="432" y="805" type="line"/>
      <point x="936" y="805" type="line"/>
      <point x="936" y="595" type="line"/>
      <point x="432" y="595" type="line"/>
      <point x="432" y="216" type="line"/>
      <point x="984" y="216" type="line"/>
      <point x="967" y="0" type="line"/>
      <point x="144" y="0" type="line"/>
      <point x="144" y="1336" type="line"/>
      <point x="974" y="1336" type="line"/>
      <point x="963" y="1126" type="line"/>
    </contour>
    <contour>
      <point x="537" y="1342" type="move" name="top"/>
    </contour>
    <contour>
      <point x="537" y="0" type="move" name="bottom"/>
    </contour>
    <contour>
      <point x="971" y="10" type="move" name="ogonek"/>
    </contour>
  </outline>
</glyph>
<glyph name="F" format="1">
  <advance width="1022"/>
  <unicode hex="0046"/>
  <outline>
    <contour>
      <point x="432" y="1116" type="line"/>
      <point x="432" y="765" type="line"/>
      <point x="928" y="765" type="line"/>
      <point x="928" y="556" type="line"/>
      <point x="432" y="556" type="line"/>
      <point x="432" y="0" type="line"/>
      <point x="144" y="0" type="line"/>
      <point x="144" y="1336" type="line"/>
      <point x="973" y="1336" type="line"/>
      <point x="961" y="1116" type="line"/>
    </contour>
  </outline>
</glyph>
<glyph name="G" format="1">
  <advance width="1309"/>
  <unicode hex="0047"/>
  <outline>
    <contour>
      <point x="738" y="-16" type="curve" smooth="yes"/>
      <point x="921" y="-16"/>
      <point x="1053" y="17"/>
      <point x="1201" y="82" type="curve"/>
      <point x="1201" y="727" type="line"/>
      <point x="685" y="727" type="line"/>
      <point x="685" y="519" type="line"/>
      <point x="954" y="519" type="line"/>
      <point x="954" y="245" type="line"/>
      <point x="891" y="222"/>
      <point x="828" y="213"/>
      <point x="749" y="213" type="curve" smooth="yes"/>
      <point x="494" y="213"/>
      <point x="380" y="383"/>
      <point x="380" y="670" type="curve" smooth="yes"/>
      <point x="380" y="964"/>
      <point x="507" y="1139"/>
      <point x="769" y="1129" type="curve" smooth="yes"/>
      <point x="893" y="1124"/>
      <point x="997" y="1090"/>
      <point x="1094" y="1042" type="curve"/>
      <point x="1183" y="1253" type="line"/>
      <point x="1055" y="1317"/>
      <point x="928" y="1359"/>
      <point x="764" y="1359" type="curve" smooth="yes"/>
      <point x="342" y="1359"/>
      <point x="92" y="1105"/>
      <point x="92" y="672" type="curve" smooth="yes"/>
      <point x="92" y="248"/>
      <point x="338" y="-16"/>
    </contour>
    <contour>
      <point x="662" y="1342" type="move" name="top"/>
    </contour>
    <contour>
      <point x="662" y="0" type="move" name="bottom"/>
    </contour>
  </outline>
</glyph>
<glyph name="H" format="1">
  <advance width="1431"/>
  <unicode hex="0048"/>
  <outline>
    <contour>
      <point x="432" y="793" type="line"/>
      <point x="432" y="1336" type="line"/>
      <point x="144" y="1336" type="line"/>
      <point x="144" y="0" type="line"/>
      <point x="432" y="0" type="line"/>
      <point x="432" y="578" type="line"/>
      <point x="999" y="578" type="line"/>
      <point x="999" y="0" type="line"/>
      <point x="1287" y="0" type="line"/>
      <point x="1287" y="1336" type="line"/>
      <point x="999" y="1336" type="line"/>
      <point x="999" y="793" type="line"/>
    </contour>
    <contour>
      <point x="704" y="1342" type="move" name="top"/>
    </contour>
    <contour>
      <point x="704" y="671" type="move" name="center"/>
    </contour>
  </outline>
</glyph>
<glyph name="I" format="1">
  <advance width="576"/>
  <unicode hex="0049"/>
  <outline>
    <contour>
      <point x="144" y="0" type="line"/>
      <point x="144" y="1336" type="line"/>
      <point x="432" y="1336" type="line"/>
      <point x="432" y="0" type="line"/>
    </contour>
    <contour>
      <point x="288" y="1336" type="move" name="top"/>
    </contour>
    <contour>
      <point x="518" y="10" type="move" name="ogonek"/>
    </contour>
  </outline>
</glyph>
<glyph name="J" format="1">
  <advance width="669"/>
  <unicode hex="004A"/>
  <outline>
    <contour>
      <point x="-18" y="-285" type="line"/>
      <point x="13" y="-292"/>
      <point x="45" y="-293"/>
      <point x="75" y="-293" type="curve" smooth="yes"/>
      <point x="391" y="-293"/>
      <point x="520" y="-153"/>
      <point x="520" y="144" type="curve" smooth="yes"/>
      <point x="520" y="1342" type="line"/>
      <point x="232" y="1342" type="line"/>
      <point x="232" y="126" type="line" smooth="yes"/>
      <point x="232" y="-21"/>
      <point x="205" y="-84"/>
      <point x="73" y="-84" type="curve" smooth="yes"/>
      <point x="50" y="-84"/>
      <point x="9" y="-82"/>
      <point x="-30" y="-75" type="curve"/>
    </contour>
    <contour>
      <point x="335" y="1342" type="move" name="top"/>
    </contour>
  </outline>
</glyph>
<glyph name="K" format="1">
  <advance width="1247"/>
  <unicode hex="004B"/>
  <outline>
    <contour>
      <point x="432" y="775" type="curve"/>
      <point x="432" y="1336" type="line"/>
      <point x="144" y="1336" type="line"/>
      <point x="144" y="0" type="line"/>
      <point x="432" y="0" type="line"/>
      <point x="432" y="537" type="line"/>
      <point x="503" y="611" type="line"/>
      <point x="916" y="0" type="line"/>
      <point x="1242" y="0" type="line"/>
      <point x="740" y="732" type="line"/>
      <point x="1232" y="1336" type="line"/>
      <point x="900" y="1336" type="line"/>
      <point x="900" y="1336"/>
      <point x="468" y="819"/>
    </contour>
    <contour>
      <point x="627" y="1342" type="move" name="top"/>
    </contour>
    <contour>
      <point x="627" y="0" type="move" name="bottom"/>
    </contour>
  </outline>
</glyph>
<glyph name="L" format="1">
  <advance width="1031"/>
  <unicode hex="004C"/>
  <outline>
    <contour>
      <point x="974" y="213" type="line"/>
      <point x="967" y="0" type="line"/>
      <point x="149" y="0" type="line"/>
      <point x="149" y="1342" type="line"/>
      <point x="437" y="1342" type="line"/>
      <point x="437" y="213" type="line"/>
    </contour>
    <contour>
      <point x="516" y="1342" type="move" name="top"/>
    </contour>
    <contour>
      <point x="516" y="0" type="move" name="bottom"/>
    </contour>
  </outline>
</glyph>
<glyph name="M" format="1">
  <advance width="1632"/>
  <unicode hex="004D"/>
  <outline>
    <contour>
      <point x="1207" y="1336" type="line"/>
      <point x="1488" y="1336" type="line"/>
      <point x="1488" y="0" type="line"/>
      <point x="1222" y="0" type="line"/>
      <point x="1222" y="487" type="line"/>
      <point x="1237" y="880" type="line"/>
      <point x="912" y="136" type="line"/>
      <point x="711" y="136" type="line"/>
      <point x="395" y="886" type="line"/>
      <point x="410" y="484" type="line"/>
      <point x="410" y="0" type="line"/>
      <point x="144" y="0" type="line"/>
      <point x="144" y="1336" type="line"/>
      <point x="430" y="1336" type="line"/>
      <point x="816" y="421" type="line"/>
    </contour>
  </outline>
</glyph>
<glyph name="N" format="1">
  <advance width="1425"/>
  <unicode hex="004E"/>
  <outline>
    <contour>
      <point x="436" y="1336" type="line"/>
      <point x="144" y="1336" type="line"/>
      <point x="144" y="0" type="line"/>
      <point x="421" y="0" type="line"/>
      <point x="421" y="409" type="line" smooth="yes"/>
      <point x="421" y="430"/>
      <point x="393" y="961"/>
      <point x="393" y="961" type="curve"/>
      <point x="978" y="0" type="line"/>
      <point x="1281" y="0" type="line"/>
      <point x="1281" y="1336" type="line"/>
      <point x="1010" y="1336" type="line"/>
      <point x="1010" y="795" type="line" smooth="yes"/>
      <point x="1010" y="787"/>
      <point x="1029" y="350"/>
      <point x="1029" y="350" type="curve"/>
    </contour>
    <contour>
      <point x="709" y="1342" type="move" name="top"/>
    </contour>
    <contour>
      <point x="709" y="0" type="move" name="bottom"/>
    </contour>
  </outline>
</glyph>
<glyph name="P" format="1">
  <advance width="1184"/>
  <unicode hex="0050"/>
  <outline>
    <contour>
      <point x="144" y="0" type="line"/>
      <point x="144" y="1336" type="line"/>
      <point x="615" y="1336" type="line" smooth="yes"/>
      <point x="914" y="1336"/>
      <point x="1136" y="1205"/>
      <point x="1136" y="919" type="curve" smooth="yes"/>
      <point x="1136" y="677"/>
      <point x="1004" y="482"/>
      <point x="615" y="482" type="curve" smooth="yes"/>
      <point x="563" y="482"/>
      <point x="499" y="483"/>
      <point x="432" y="489" type="curve"/>
      <point x="432" y="0" type="line"/>
    </contour>
    <contour>
      <point x="589" y="677" type="curve" smooth="yes"/>
      <point x="834" y="677"/>
      <point x="848" y="798"/>
      <point x="848" y="911" type="curve" smooth="yes"/>
      <point x="848" y="1053"/>
      <point x="777" y="1126"/>
      <point x="616" y="1126" type="curve" smooth="yes"/>
      <point x="432" y="1126" type="line"/>
      <point x="432" y="678" type="line"/>
      <point x="460" y="677"/>
      <point x="543" y="677"/>
    </contour>
  </outline>
</glyph>
<glyph name="Q" format="1">
  <advance width="1482"/>
  <unicode hex="0051"/>
  <outline>
    <contour>
      <point x="1289" y="-313" type="curve"/>
      <point x="1120" y="-460" type="line"/>
      <point x="1010" y="-382"/>
      <point x="875" y="-156"/>
      <point x="798" y="-14" type="curve"/>
      <point x="779" y="-15"/>
      <point x="759" y="-16"/>
      <point x="739" y="-16" type="curve" smooth="yes"/>
      <point x="346" y="-16"/>
      <point x="92" y="239"/>
      <point x="92" y="671" type="curve" smooth="yes"/>
      <point x="92" y="1107"/>
      <point x="349" y="1358"/>
      <point x="740" y="1358" type="curve" smooth="yes"/>
      <point x="1131" y="1358"/>
      <point x="1390" y="1105"/>
      <point x="1390" y="671" type="curve" smooth="yes"/>
      <point x="1390" y="363"/>
      <point x="1257" y="143"/>
      <point x="1037" y="43" type="curve"/>
      <point x="1082" y="-32"/>
      <point x="1178" y="-202"/>
    </contour>
    <contour>
      <point x="740" y="213" type="curve" smooth="yes"/>
      <point x="988" y="213"/>
      <point x="1102" y="393"/>
      <point x="1102" y="669" type="curve" smooth="yes"/>
      <point x="1102" y="949"/>
      <point x="987" y="1129"/>
      <point x="741" y="1129" type="curve" smooth="yes"/>
      <point x="494" y="1129"/>
      <point x="380" y="947"/>
      <point x="380" y="669" type="curve" smooth="yes"/>
      <point x="380" y="395"/>
      <point x="492" y="213"/>
    </contour>
  </outline>
</glyph>
<glyph name="R" format="1">
  <advance width="1294"/>
  <unicode hex="0052"/>
  <outline>
    <contour>
      <point x="432" y="531" type="line"/>
      <point x="612" y="531" type="line" smooth="yes"/>
      <point x="645" y="531"/>
      <point x="667" y="531"/>
      <point x="684" y="530" type="curve"/>
      <point x="699" y="501"/>
      <point x="754" y="395"/>
      <point x="784" y="331" type="curve"/>
      <point x="947" y="0" type="line"/>
      <point x="1250" y="0" type="line"/>
      <point x="1053" y="391" type="line" smooth="yes"/>
      <point x="1017" y="465"/>
      <point x="980" y="539"/>
      <point x="943" y="587" type="curve"/>
      <point x="1090" y="646"/>
      <point x="1200" y="770"/>
      <point x="1200" y="947" type="curve" smooth="yes"/>
      <point x="1200" y="1258"/>
      <point x="969" y="1336"/>
      <point x="663" y="1336" type="curve" smooth="yes"/>
      <point x="144" y="1336" type="line"/>
      <point x="144" y="0" type="line"/>
      <point x="432" y="0" type="line"/>
    </contour>
    <contour>
      <point x="432" y="742" type="line"/>
      <point x="432" y="1126" type="line"/>
      <point x="676" y="1126" type="line" smooth="yes"/>
      <point x="840" y="1126"/>
      <point x="912" y="1064"/>
      <point x="912" y="943" type="curve" smooth="yes"/>
      <point x="912" y="804"/>
      <point x="847" y="742"/>
      <point x="666" y="742" type="curve" smooth="yes"/>
    </contour>
    <contour>
      <point x="641" y="1342" type="move" name="top"/>
    </contour>
    <contour>
      <point x="641" y="0" type="move" name="bottom"/>
    </contour>
  </outline>
</glyph>
<glyph name="S" format="1">
  <advance width="1074"/>
  <unicode hex="0053"/>
  <outline>
    <contour>
      <point x="1003" y="381" type="curve" smooth="yes"/>
      <point x="1003" y="598"/>
      <point x="898" y="705"/>
      <point x="663" y="783" type="curve"/>
      <point x="455" y="853" type="line" smooth="yes"/>
      <point x="394" y="873"/>
      <point x="357" y="915"/>
      <point x="357" y="980" type="curve" smooth="yes"/>
      <point x="357" y="1087"/>
      <point x="431" y="1128"/>
      <point x="564" y="1128" type="curve" smooth="yes"/>
      <point x="683" y="1128"/>
      <point x="810" y="1075"/>
      <point x="902" y="1035" type="curve"/>
      <point x="984" y="1251" type="line"/>
      <point x="863" y="1320"/>
      <point x="713" y="1358"/>
      <point x="553" y="1358" type="curve" smooth="yes"/>
      <point x="285" y="1358"/>
      <point x="88" y="1227"/>
      <point x="88" y="975" type="curve" smooth="yes"/>
      <point x="88" y="785"/>
      <point x="192" y="670"/>
      <point x="354" y="617" type="curve" smooth="yes"/>
      <point x="578" y="544" type="line" smooth="yes"/>
      <point x="675" y="512"/>
      <point x="730" y="464"/>
      <point x="730" y="385" type="curve" smooth="yes"/>
      <point x="730" y="262"/>
      <point x="661" y="210"/>
      <point x="520" y="210" type="curve" smooth="yes"/>
      <point x="388" y="210"/>
      <point x="225" y="253"/>
      <point x="148" y="303" type="curve"/>
      <point x="65" y="87" type="line"/>
      <point x="181" y="21"/>
      <point x="334" y="-17"/>
      <point x="510" y="-17" type="curve" smooth="yes"/>
      <point x="799" y="-17"/>
      <point x="1003" y="119"/>
    </contour>
    <contour>
      <point x="534" y="1342" type="move" name="top"/>
    </contour>
    <contour>
      <point x="534" y="0" type="move" name="bottom"/>
    </contour>
  </outline>
</glyph>
<glyph name="T" format="1">
  <advance width="1104"/>
  <unicode hex="0054"/>
  <outline>
    <contour>
      <point x="1064" y="1342" type="line"/>
      <point x="1064" y="1122" type="line"/>
      <point x="695" y="1122" type="line"/>
      <point x="695" y="0" type="line"/>
      <point x="407" y="0" type="line"/>
      <point x="407" y="1122" type="line"/>
      <point x="40" y="1122" type="line"/>
      <point x="40" y="1342" type="line"/>
    </contour>
    <contour>
      <point x="552" y="1342" type="move" name="top"/>
    </contour>
    <contour>
      <point x="552" y="0" type="move" name="bottom"/>
    </contour>
    <contour>
      <point x="552" y="671" type="move" name="center"/>
    </contour>
  </outline>
</glyph>
<glyph name="U" format="1">
  <advance width="1358"/>
  <unicode hex="0055"/>
  <outline>
    <contour>
      <point x="679" y="-17" type="curve" smooth="yes"/>
      <point x="331" y="-17"/>
      <point x="128" y="170"/>
      <point x="128" y="485" type="curve" smooth="yes"/>
      <point x="128" y="1336" type="line"/>
      <point x="416" y="1336" type="line"/>
      <point x="416" y="504" type="line" smooth="yes"/>
      <point x="416" y="309"/>
      <point x="503" y="213"/>
      <point x="679" y="213" type="curve" smooth="yes"/>
      <point x="861" y="213"/>
      <point x="942" y="310"/>
      <point x="942" y="505" type="curve" smooth="yes"/>
      <point x="942" y="1336" type="line"/>
      <point x="1230" y="1336" type="line"/>
      <point x="1230" y="484" type="line" smooth="yes"/>
      <point x="1230" y="172"/>
      <point x="1026" y="-17"/>
    </contour>
    <contour>
      <point x="679" y="1342" type="move" name="top"/>
    </contour>
    <contour>
      <point x="1229" y="10" type="move" name="ogonek"/>
    </contour>
  </outline>
</glyph>
<glyph name="V" format="1">
  <advance width="1215"/>
  <unicode hex="0056"/>
  <outline>
    <contour>
      <point x="775" y="0" type="line"/>
      <point x="1203" y="1336" type="line"/>
      <point x="897" y="1336" type="line"/>
      <point x="695" y="608" type="line"/>
      <point x="615" y="328" type="line"/>
      <point x="533" y="607" type="line"/>
      <point x="320" y="1336" type="line"/>
      <point x="12" y="1336" type="line"/>
      <point x="447" y="0" type="line"/>
    </contour>
  </outline>
</glyph>
<glyph name="W" format="1">
  <advance width="1868"/>
  <unicode hex="0057"/>
  <outline>
    <contour>
      <point x="526" y="376" type="line"/>
      <point x="295" y="1336" type="line"/>
      <point x="13" y="1336" type="line"/>
      <point x="379" y="0" type="line"/>
      <point x="649" y="0" type="line"/>
      <point x="935" y="963" type="line"/>
      <point x="1200" y="0" type="line"/>
      <point x="1472" y="0" type="line"/>
      <point x="1855" y="1336" type="line"/>
      <point x="1574" y="1336" type="line"/>
      <point x="1330" y="373" type="line"/>
      <point x="1064" y="1330" type="line"/>
      <point x="805" y="1330" type="line"/>
    </contour>
    <contour>
      <point x="934" y="1342" type="move" name="top"/>
    </contour>
  </outline>
</glyph>
<glyph name="X" format="1">
  <advance width="1236"/>
  <unicode hex="0058"/>
  <outline>
    <contour>
      <point x="778" y="682" type="line"/>
      <point x="1214" y="1336" type="line"/>
      <point x="923" y="1336" type="line"/>
      <point x="626" y="880" type="line"/>
      <point x="337" y="1336" type="line"/>
      <point x="32" y="1336" type="line"/>
      <point x="459" y="687" type="line"/>
      <point x="0" y="0" type="line"/>
      <point x="296" y="0" type="line"/>
      <point x="614" y="456" type="line"/>
      <point x="924" y="0" type="line"/>
      <point x="1236" y="0" type="line"/>
    </contour>
  </outline>
</glyph>
<glyph name="Z" format="1">
  <advance width="1082"/>
  <unicode hex="005A"/>
  <outline>
    <contour>
      <point x="94" y="1336" type="line"/>
      <point x="94" y="1126" type="line"/>
      <point x="676" y="1126" type="line"/>
      <point x="87" y="172" type="line"/>
      <point x="87" y="0" type="line"/>
      <point x="1025" y="0" type="line"/>
      <point x="1025" y="216" type="line"/>
      <point x="457" y="216" type="line"/>
      <point x="1016" y="1150" type="line"/>
      <point x="1016" y="1336" type="line"/>
    </contour>
    <contour>
      <point x="549" y="1342" type="move" name="top"/>
    </contour>
  </outline>
</glyph>
<glyph name="backslash" format="1">
  <advance width="788"/>
  <unicode hex="005C"/>
  <outline>
    <contour>
      <point x="569" y="-54" type="line"/>
      <point x="18" y="1339" type="line"/>
      <point x="244" y="1339" type="line"/>
      <point x="795" y="-54" type="line"/>
    </contour>
  </outline>
</glyph>
<glyph name="asciicircum" format="1">
  <advance width="1011"/>
  <unicode hex="005E"/>
  <outline>
    <contour>
      <point x="22" y="491" type="line"/>
      <point x="441" y="1347" type="line"/>
      <point x="566" y="1347" type="line"/>
      <point x="1011" y="491" type="line"/>
      <point x="802" y="491" type="line"/>
      <point x="505" y="1075" type="line"/>
      <point x="231" y="491" type="line"/>
    </contour>
  </outline>
</glyph>
<glyph name="grave" format="1">
  <advance width="447"/>
  <unicode hex="0060"/>
  <outline>
    <contour>
      <point x="291" y="1081" type="line"/>
      <point x="-20" y="1442" type="line"/>
      <point x="279" y="1442" type="line"/>
      <point x="456" y="1081" type="line"/>
    </contour>
    <contour>
      <point x="218" y="1016" type="move" name="_top"/>
    </contour>
  </outline>
</glyph>
<glyph name="a" format="1">
  <advance width="1075"/>
  <unicode hex="0061"/>
  <outline>
    <contour>
      <point x="413" y="-18" type="curve" smooth="yes"/>
      <point x="546" y="-18"/>
      <point x="650" y="42"/>
      <point x="716" y="134" type="curve"/>
      <point x="725" y="99"/>
      <point x="748" y="12"/>
      <point x="751" y="0" type="curve"/>
      <point x="941" y="0" type="line"/>
      <point x="941" y="660" type="line" smooth="yes"/>
      <point x="941" y="927"/>
      <point x="821" y="1041"/>
      <point x="556" y="1041" type="curve" smooth="yes"/>
      <point x="409" y="1041"/>
      <point x="253" y="1004"/>
      <point x="132" y="953" type="curve"/>
      <point x="138" y="940"/>
      <point x="191" y="793"/>
      <point x="196" y="779" type="curve"/>
      <point x="297" y="820"/>
      <point x="451" y="852"/>
      <point x="538" y="852" type="curve" smooth="yes"/>
      <point x="640" y="852"/>
      <point x="686" y="807"/>
      <point x="686" y="689" type="curve" smooth="yes"/>
      <point x="686" y="646" type="line"/>
      <point x="621" y="638"/>
      <point x="566" y="633"/>
      <point x="506" y="626" type="curve" smooth="yes"/>
      <point x="253" y="600"/>
      <point x="94" y="508"/>
      <point x="94" y="284" type="curve" smooth="yes"/>
      <point x="94" y="77"/>
      <point x="237" y="-18"/>
    </contour>
    <contour>
      <point x="477" y="166" type="curve" smooth="yes"/>
      <point x="393" y="166"/>
      <point x="350" y="208"/>
      <point x="350" y="287" type="curve" smooth="yes"/>
      <point x="350" y="404"/>
      <point x="434" y="450"/>
      <point x="606" y="465" type="curve"/>
      <point x="606" y="465"/>
      <point x="665" y="472"/>
      <point x="685" y="474" type="curve"/>
      <point x="685" y="291" type="line"/>
      <point x="655" y="228"/>
      <point x="585" y="166"/>
    </contour>
    <contour>
      <point x="538" y="1016" type="move" name="top"/>
    </contour>
    <contour>
      <point x="967" y="10" type="move" name="ogonek"/>
    </contour>
  </outline>
</glyph>
<glyph name="c" format="1">
  <advance width="907"/>
  <unicode hex="0063"/>
  <outline>
    <contour>
      <point x="558" y="-18" type="curve" smooth="yes"/>
      <point x="263" y="-18"/>
      <point x="76" y="170"/>
      <point x="76" y="516" type="curve" smooth="yes"/>
      <point x="76" y="856"/>
      <point x="284" y="1041"/>
      <point x="561" y="1041" type="curve" smooth="yes"/>
      <point x="679" y="1041"/>
      <point x="776" y="1013"/>
      <point x="862" y="959" type="curve"/>
      <point x="802" y="781" type="line"/>
      <point x="764" y="797"/>
      <point x="725" y="840"/>
      <point x="591" y="840" type="curve"/>
      <point x="447" y="833"/>
      <point x="332" y="735"/>
      <point x="332" y="513" type="curve" smooth="yes"/>
      <point x="332" y="292"/>
      <point x="439" y="190"/>
      <point x="584" y="183" type="curve" smooth="yes"/>
      <point x="674" y="178"/>
      <point x="748" y="207"/>
      <point x="819" y="247" type="curve"/>
      <point x="852" y="64" type="line"/>
      <point x="816" y="45"/>
      <point x="749" y="-18"/>
    </contour>
    <contour>
      <point x="454" y="1016" type="move" name="top"/>
    </contour>
    <contour>
      <point x="454" y="0" type="move" name="bottom"/>
    </contour>
  </outline>
</glyph>
<glyph name="d" format="1">
  <advance width="1147"/>
  <unicode hex="0064"/>
  <outline>
    <contour>
      <point x="546" y="843" type="curve" smooth="yes"/>
      <point x="421" y="843"/>
      <point x="332" y="742"/>
      <point x="332" y="512" type="curve" smooth="yes"/>
      <point x="332" y="285"/>
      <point x="420" y="179"/>
      <point x="548" y="179" type="curve" smooth="yes"/>
      <point x="687" y="179"/>
      <point x="770" y="267"/>
      <point x="772" y="497" type="curve"/>
      <point x="772" y="748"/>
      <point x="691" y="843"/>
    </contour>
    <contour>
      <point x="1017" y="0" type="line"/>
      <point x="797" y="0" type="line"/>
      <point x="773" y="117" type="line"/>
      <point x="733" y="55"/>
      <point x="661" y="-17"/>
      <point x="492" y="-17" type="curve" smooth="yes"/>
      <point x="231" y="-17"/>
      <point x="76" y="200"/>
      <point x="76" y="517" type="curve" smooth="yes"/>
      <point x="76" y="826"/>
      <point x="230" y="1041"/>
      <point x="492" y="1041" type="curve" smooth="yes"/>
      <point x="644" y="1041"/>
      <point x="725" y="978"/>
      <point x="769" y="920" type="curve"/>
      <point x="765" y="963"/>
      <point x="761" y="1017"/>
      <point x="761" y="1052" type="curve" smooth="yes"/>
      <point x="761" y="1376" type="line"/>
      <point x="1017" y="1393" type="line"/>
    </contour>
    <contour>
      <point x="574" y="508" type="move" name="center"/>
    </contour>
  </outline>
</glyph>
<glyph name="e" format="1">
  <advance width="1030"/>
  <unicode hex="0065"/>
  <outline>
    <contour>
      <point x="341" y="613" type="line"/>
      <point x="360" y="774"/>
      <point x="441" y="854"/>
      <point x="544" y="854" type="curve" smooth="yes"/>
      <point x="661" y="854"/>
      <point x="731" y="760"/>
      <point x="735" y="613" type="curve"/>
    </contour>
    <contour>
      <point x="580" y="-18" type="curve" smooth="yes"/>
      <point x="736" y="-18"/>
      <point x="840" y="2"/>
      <point x="936" y="63" type="curve"/>
      <point x="901" y="243" type="line"/>
      <point x="859" y="224"/>
      <point x="767" y="174"/>
      <point x="604" y="174" type="curve" smooth="yes"/>
      <point x="431" y="174"/>
      <point x="348" y="273"/>
      <point x="335" y="448" type="curve"/>
      <point x="968" y="448" type="line"/>
      <point x="968" y="448"/>
      <point x="975" y="543"/>
      <point x="975" y="558" type="curve" smooth="yes"/>
      <point x="975" y="840"/>
      <point x="822" y="1041"/>
      <point x="543" y="1041" type="curve" smooth="yes"/>
      <point x="254" y="1040"/>
      <point x="76" y="830"/>
      <point x="76" y="512" type="curve" smooth="yes"/>
      <point x="76" y="183"/>
      <point x="265" y="-18"/>
    </contour>
    <contour>
      <point x="522" y="1016" type="move" name="top"/>
    </contour>
    <contour>
      <point x="522" y="0" type="move" name="bottom"/>
    </contour>
    <contour>
      <point x="936" y="10" type="move" name="ogonek"/>
    </contour>
  </outline>
</glyph>
<glyph name="f" format="1">
  <advance width="712"/>
  <unicode hex="0066"/>
  <outline>
    <contour>
      <point x="189" y="0" type="line"/>
      <point x="445" y="0" type="line"/>
      <point x="445" y="839" type="line"/>
      <point x="673" y="839" type="line"/>
      <point x="673" y="1016" type="line"/>
      <point x="445" y="1016" type="line"/>
      <point x="445" y="1074" type="line" smooth="yes"/>
      <point x="445" y="1201"/>
      <point x="494" y="1219"/>
      <point x="576" y="1219" type="curve" smooth="yes"/>
      <point x="616" y="1219"/>
      <point x="665" y="1213"/>
      <point x="695" y="1208" type="curve"/>
      <point x="718" y="1401" type="line"/>
      <point x="651" y="1414"/>
      <point x="589" y="1420"/>
      <point x="530" y="1420" type="curve" smooth="yes"/>
      <point x="335" y="1420"/>
      <point x="189" y="1350"/>
      <point x="189" y="1061" type="curve" smooth="yes"/>
      <point x="189" y="1015" type="line"/>
      <point x="48" y="998" type="line"/>
      <point x="43" y="839" type="line"/>
      <point x="189" y="839" type="line"/>
    </contour>
  </outline>
</glyph>
<glyph name="g" format="1">
  <advance width="1153"/>
  <unicode hex="0067"/>
  <outline>
    <contour>
      <point x="557" y="195" type="curve" smooth="yes"/>
      <point x="408" y="195"/>
      <point x="328" y="343"/>
      <point x="328" y="526" type="curve" smooth="yes"/>
      <point x="328" y="716"/>
      <point x="404" y="843"/>
      <point x="570" y="843" type="curve"/>
      <point x="713" y="841"/>
      <point x="787" y="733"/>
      <point x="787" y="536" type="curve" smooth="yes"/>
      <point x="787" y="508" type="line"/>
      <point x="785" y="323"/>
      <point x="727" y="195"/>
    </contour>
    <contour>
      <point x="484" y="-439" type="curve" smooth="yes"/>
      <point x="864" y="-439"/>
      <point x="1032" y="-166"/>
      <point x="1032" y="185" type="curve" smooth="yes"/>
      <point x="1032" y="1017" type="line"/>
      <point x="805" y="1017" type="line"/>
      <point x="792" y="893" type="line"/>
      <point x="736" y="1005"/>
      <point x="637" y="1041"/>
      <point x="505" y="1041" type="curve" smooth="yes"/>
      <point x="270" y="1041"/>
      <point x="72" y="854"/>
      <point x="72" y="519" type="curve" smooth="yes"/>
      <point x="72" y="213"/>
      <point x="236" y="0"/>
      <point x="496" y="0" type="curve" smooth="yes"/>
      <point x="634" y="0"/>
      <point x="743" y="70"/>
      <point x="781" y="156" type="curve"/>
      <point x="783" y="139"/>
      <point x="784" y="103"/>
      <point x="784" y="87" type="curve" smooth="yes"/>
      <point x="784" y="-85"/>
      <point x="677" y="-237"/>
      <point x="459" y="-237" type="curve" smooth="yes"/>
      <point x="357" y="-237"/>
      <point x="299" y="-215"/>
      <point x="242" y="-207" type="curve"/>
      <point x="226" y="-402" type="line"/>
      <point x="234" y="-405"/>
      <point x="337" y="-439"/>
    </contour>
    <contour>
      <point x="577" y="1016" type="move" name="top"/>
    </contour>
  </outline>
</glyph>
<glyph name="h" format="1">
  <advance width="1145"/>
  <unicode hex="0068"/>
  <outline>
    <contour>
      <point x="130" y="1376" type="line"/>
      <point x="130" y="0" type="line"/>
      <point x="383" y="0" type="line"/>
      <point x="383" y="491" type="line" smooth="yes"/>
      <point x="383" y="578"/>
      <point x="390" y="650"/>
      <point x="404" y="706" type="curve"/>
      <point x="442" y="785"/>
      <point x="519" y="844"/>
      <point x="619" y="844" type="curve" smooth="yes"/>
      <point x="734" y="844"/>
      <point x="772" y="775"/>
      <point x="772" y="618" type="curve" smooth="yes"/>
      <point x="772" y="0" type="line"/>
      <point x="1028" y="0" type="line"/>
      <point x="1028" y="641" type="line" smooth="yes"/>
      <point x="1028" y="918"/>
      <point x="889" y="1041"/>
      <point x="675" y="1041" type="curve" smooth="yes"/>
      <point x="531" y="1041"/>
      <point x="437" y="979"/>
      <point x="379" y="918" type="curve"/>
      <point x="381" y="970"/>
      <point x="386" y="1074"/>
      <point x="386" y="1102" type="curve" smooth="yes"/>
      <point x="386" y="1393" type="line"/>
    </contour>
    <contour>
      <point x="573" y="1016" type="move" name="top"/>
    </contour>
    <contour>
      <point x="573" y="508" type="move" name="center"/>
    </contour>
  </outline>
</glyph>
<glyph name="i" format="1">
  <advance width="526"/>
  <unicode hex="0069"/>
  <outline>
    <contour>
      <point x="142" y="0" type="line"/>
      <point x="142" y="1016" type="line"/>
      <point x="398" y="1016" type="line"/>
      <point x="398" y="0" type="line"/>
    </contour>
    <contour>
      <point x="142" y="1139" type="line"/>
      <point x="142" y="1357" type="line"/>
      <point x="398" y="1357" type="line"/>
      <point x="398" y="1139" type="line"/>
    </contour>
  </outline>
</glyph>
<glyph name="l" format="1">
  <advance width="628"/>
  <unicode hex="006C"/>
  <outline>
    <contour>
      <point x="475" y="-13" type="curve" smooth="yes"/>
      <point x="198" y="-13"/>
      <point x="135" y="124"/>
      <point x="135" y="401" type="curve" smooth="yes"/>
      <point x="135" y="1376" type="line"/>
      <point x="391" y="1393" type="line"/>
      <point x="391" y="404" type="line" smooth="yes"/>
      <point x="391" y="205"/>
      <point x="426" y="178"/>
      <point x="511" y="178" type="curve" smooth="yes"/>
      <point x="540" y="178"/>
      <point x="573.25" y="184.75"/>
      <point x="594" y="187" type="curve"/>
      <point x="625" y="7" type="line"/>
      <point x="618" y="4"/>
      <point x="550" y="-13"/>
    </contour>
    <contour>
      <point x="323" y="1016" type="move" name="top"/>
    </contour>
    <contour>
      <point x="323" y="0" type="move" name="bottom"/>
    </contour>
    <contour>
      <point x="620" y="1016" type="move" name="topright"/>
    </contour>
  </outline>
</glyph>
<glyph name="m" format="1">
  <advance width="1751"/>
  <unicode hex="006D"/>
  <outline>
    <contour>
      <point x="386" y="494" type="line" smooth="yes"/>
      <point x="386" y="581"/>
      <point x="393" y="656"/>
      <point x="406" y="713" type="curve"/>
      <point x="441" y="789"/>
      <point x="505" y="844"/>
      <point x="603" y="844" type="curve" smooth="yes"/>
      <point x="720" y="844"/>
      <point x="752" y="754"/>
      <point x="752" y="590" type="curve" smooth="yes"/>
      <point x="752" y="0" type="line"/>
      <point x="1008" y="0" type="line"/>
      <point x="1008" y="596" type="line"/>
      <point x="1014" y="647"/>
      <point x="1021" y="690"/>
      <point x="1037" y="727" type="curve"/>
      <point x="1073" y="802"/>
      <point x="1135" y="844"/>
      <point x="1221" y="844" type="curve" smooth="yes"/>
      <point x="1336" y="844"/>
      <point x="1378" y="762"/>
      <point x="1378" y="579" type="curve" smooth="yes"/>
      <point x="1378" y="0" type="line"/>
      <point x="1634" y="0" type="line"/>
      <point x="1634" y="646" type="line" smooth="yes"/>
      <point x="1634" y="897"/>
      <point x="1515" y="1041"/>
      <point x="1281" y="1041" type="curve" smooth="yes"/>
      <point x="1147" y="1041"/>
      <point x="1036" y="986"/>
      <point x="964" y="892" type="curve"/>
      <point x="926" y="962"/>
      <point x="843" y="1041"/>
      <point x="680" y="1041" type="curve" smooth="yes"/>
      <point x="501" y="1041"/>
      <point x="412" y="962"/>
      <point x="362" y="903" type="curve"/>
      <point x="338" y="1016" type="line"/>
      <point x="130" y="1016" type="line"/>
      <point x="130" y="0" type="line"/>
      <point x="386" y="0" type="line"/>
    </contour>
  </outline>
</glyph>
<glyph name="n" format="1">
  <advance width="1143"/>
  <unicode hex="006E"/>
  <outline>
    <contour>
      <point x="128" y="0" type="line"/>
      <point x="384" y="0" type="line"/>
      <point x="384" y="496" type="line" smooth="yes"/>
      <point x="384" y="582"/>
      <point x="387" y="656"/>
      <point x="400" y="713" type="curve"/>
      <point x="436" y="789"/>
      <point x="518" y="844"/>
      <point x="616" y="844" type="curve" smooth="yes"/>
      <point x="742" y="844"/>
      <point x="772" y="761"/>
      <point x="773" y="612" type="curve"/>
      <point x="773" y="0" type="line"/>
      <point x="1029" y="0" type="line"/>
      <point x="1029" y="640" type="line" smooth="yes"/>
      <point x="1029" y="891"/>
      <point x="916" y="1041"/>
      <point x="681" y="1041" type="curve" smooth="yes"/>
      <point x="540" y="1041"/>
      <point x="440" y="979"/>
      <point x="360" y="902" type="curve"/>
      <point x="336" y="1016" type="line"/>
      <point x="128" y="1016" type="line"/>
    </contour>
    <contour>
      <point x="572" y="1016" type="move" name="top"/>
    </contour>
    <contour>
      <point x="572" y="0" type="move" name="bottom"/>
    </contour>
  </outline>
</glyph>
<glyph name="o" format="1">
  <advance width="1104"/>
  <unicode hex="006F"/>
  <outline>
    <contour>
      <point x="552" y="-18" type="curve" smooth="yes"/>
      <point x="860" y="-18"/>
      <point x="1032" y="195"/>
      <point x="1032" y="512" type="curve" smooth="yes"/>
      <point x="1032" y="825"/>
      <point x="849" y="1041"/>
      <point x="552" y="1041" type="curve" smooth="yes"/>
      <point x="244" y="1041"/>
      <point x="72" y="833"/>
      <point x="72" y="512" type="curve" smooth="yes"/>
      <point x="72" y="200"/>
      <point x="257" y="-18"/>
    </contour>
    <contour>
      <point x="552" y="178" type="curve" smooth="yes"/>
      <point x="401" y="178"/>
      <point x="328" y="310"/>
      <point x="328" y="511" type="curve" smooth="yes"/>
      <point x="328" y="709"/>
      <point x="403" y="844"/>
      <point x="552" y="844" type="curve" smooth="yes"/>
      <point x="703" y="844"/>
      <point x="776" y="710"/>
      <point x="776" y="512" type="curve" smooth="yes"/>
      <point x="776" y="309"/>
      <point x="702" y="178"/>
    </contour>
    <contour>
      <point x="552" y="1016" type="move" name="top"/>
    </contour>
  </outline>
</glyph>
<glyph name="p" format="1">
  <advance width="1147"/>
  <unicode hex="0070"/>
  <outline>
    <contour>
      <point x="130" y="1016" type="line"/>
      <point x="351" y="1016" type="line"/>
      <point x="373" y="906" type="line"/>
      <point x="432" y="976"/>
      <point x="550" y="1041"/>
      <point x="678" y="1041" type="curve" smooth="yes"/>
      <point x="926" y="1041"/>
      <point x="1075" y="806"/>
      <point x="1075" y="513" type="curve" smooth="yes"/>
      <point x="1075" y="207"/>
      <point x="917" y="-18"/>
      <point x="657" y="-18" type="curve" smooth="yes"/>
      <point x="542" y="-18"/>
      <point x="448" y="28"/>
      <point x="381" y="99" type="curve"/>
      <point x="384" y="54"/>
      <point x="386" y="13"/>
      <point x="386" y="-15" type="curve" smooth="yes"/>
      <point x="386" y="-395" type="line"/>
      <point x="130" y="-408" type="line"/>
    </contour>
    <contour>
      <point x="609" y="179" type="curve" smooth="yes"/>
      <point x="735" y="179"/>
      <point x="819" y="291"/>
      <point x="819" y="515" type="curve" smooth="yes"/>
      <point x="819" y="746"/>
      <point x="732" y="844"/>
      <point x="605" y="844" type="curve" smooth="yes"/>
      <point x="469" y="844"/>
      <point x="386" y="755"/>
      <point x="384" y="530" type="curve"/>
      <point x="384" y="277"/>
      <point x="465" y="179"/>
    </contour>
  </outline>
</glyph>
<glyph name="r" format="1">
  <advance width="733"/>
  <unicode hex="0072"/>
  <outline>
    <contour>
      <point x="128" y="1016" type="line"/>
      <point x="344" y="1016" type="line"/>
      <point x="372" y="860" type="line"/>
      <point x="435" y="950"/>
      <point x="538" y="1021"/>
      <point x="656" y="1021" type="curve" smooth="yes"/>
      <point x="679" y="1021"/>
      <point x="700" y="1021"/>
      <point x="727" y="1015" type="curve"/>
      <point x="723" y="799" type="line"/>
      <point x="690" y="805"/>
      <point x="665" y="807"/>
      <point x="639" y="807" type="curve" smooth="yes"/>
      <point x="467" y="807"/>
      <point x="384" y="707"/>
      <point x="384" y="551" type="curve" smooth="yes"/>
      <point x="384" y="0" type="line"/>
      <point x="128" y="0" type="line"/>
    </contour>
    <contour>
      <point x="368" y="1016" type="move" name="top"/>
    </contour>
    <contour>
      <point x="368" y="0" type="move" name="bottom"/>
    </contour>
  </outline>
</glyph>
<glyph name="s" format="1">
  <advance width="883"/>
  <unicode hex="0073"/>
  <outline>
    <contour>
      <point x="436" y="-17" type="curve" smooth="yes"/>
      <point x="238" y="-17"/>
      <point x="92" y="83"/>
      <point x="72" y="99" type="curve"/>
      <point x="126" y="277" type="line"/>
      <point x="202" y="227"/>
      <point x="349" y="164"/>
      <point x="450" y="167" type="curve" smooth="yes"/>
      <point x="548" y="170"/>
      <point x="584" y="204"/>
      <point x="586" y="275" type="curve"/>
      <point x="586" y="340"/>
      <point x="520" y="361"/>
      <point x="398" y="421" type="curve" smooth="yes"/>
      <point x="345" y="447" type="line"/>
      <point x="174" y="526"/>
      <point x="83" y="586"/>
      <point x="82" y="748" type="curve"/>
      <point x="82" y="940"/>
      <point x="231" y="1041"/>
      <point x="459" y="1041" type="curve" smooth="yes"/>
      <point x="583" y="1041"/>
      <point x="704" y="1005"/>
      <point x="809" y="953" type="curve"/>
      <point x="741" y="781" type="line"/>
      <point x="665" y="818"/>
      <point x="558" y="854"/>
      <point x="468" y="854" type="curve" smooth="yes"/>
      <point x="380" y="854"/>
      <point x="325" y="827"/>
      <point x="325" y="768" type="curve" smooth="yes"/>
      <point x="325" y="709"/>
      <point x="373" y="694"/>
      <point x="501" y="637" type="curve" smooth="yes"/>
      <point x="518" y="630"/>
      <point x="539" y="620"/>
      <point x="557" y="612" type="curve" smooth="yes"/>
      <point x="730" y="540"/>
      <point x="832" y="466"/>
      <point x="832" y="306" type="curve" smooth="yes"/>
      <point x="832" y="99"/>
      <point x="679" y="-17"/>
    </contour>
    <contour>
      <point x="442" y="1016" type="move" name="top"/>
    </contour>
    <contour>
      <point x="442" y="0" type="move" name="bottom"/>
    </contour>
  </outline>
</glyph>
<glyph name="t" format="1">
  <advance width="776"/>
  <unicode hex="0074"/>
  <outline>
    <contour>
      <point x="549" y="-13" type="curve" smooth="yes"/>
      <point x="282" y="-13"/>
      <point x="186" y="126"/>
      <point x="185" y="392" type="curve"/>
      <point x="185" y="853" type="line"/>
      <point x="24" y="853" type="line"/>
      <point x="38" y="1004" type="line"/>
      <point x="201" y="1016" type="line"/>
      <point x="259" y="1268" type="line"/>
      <point x="441" y="1268" type="line"/>
      <point x="441" y="1016" type="line"/>
      <point x="716" y="1016" type="line"/>
      <point x="716" y="852" type="line"/>
      <point x="441" y="852" type="line"/>
      <point x="441" y="386" type="line" smooth="yes"/>
      <point x="441" y="222"/>
      <point x="503" y="172"/>
      <point x="602" y="172" type="curve" smooth="yes"/>
      <point x="661" y="172"/>
      <point x="720" y="188"/>
      <point x="725" y="191" type="curve"/>
      <point x="758" y="20" type="line"/>
      <point x="750" y="17"/>
      <point x="653" y="-13"/>
    </contour>
    <contour>
      <point x="408" y="508" type="move" name="center"/>
    </contour>
    <contour>
      <point x="408" y="0" type="move" name="bottom"/>
    </contour>
  </outline>
</glyph>
<glyph name="u" format="1">
  <advance width="1181"/>
  <unicode hex="0075"/>
  <outline>
    <contour>
      <point x="1013" y="1016" type="line"/>
      <point x="757" y="1016" type="line"/>
      <point x="757" y="520" type="line" smooth="yes"/>
      <point x="757" y="434"/>
      <point x="759" y="362"/>
      <point x="746" y="305" type="curve"/>
      <point x="710" y="228"/>
      <point x="627" y="172"/>
      <point x="530" y="172" type="curve" smooth="yes"/>
      <point x="404" y="172"/>
      <point x="373" y="253"/>
      <point x="373" y="404" type="curve" smooth="yes"/>
      <point x="373" y="1016" type="line"/>
      <point x="117" y="1016" type="line"/>
      <point x="117" y="377" type="line" smooth="yes"/>
      <point x="117" y="126"/>
      <point x="230" y="-24"/>
      <point x="465" y="-24" type="curve" smooth="yes"/>
      <point x="606" y="-24"/>
      <point x="709" y="40"/>
      <point x="785" y="125" type="curve"/>
      <point x="809" y="0" type="line"/>
      <point x="1013" y="0" type="line"/>
    </contour>
    <contour>
      <point x="591" y="1016" type="move" name="top"/>
    </contour>
    <contour>
      <point x="1063" y="10" type="move" name="ogonek"/>
    </contour>
  </outline>
</glyph>
<glyph name="v" format="1">
  <advance width="1034"/>
  <unicode hex="0076"/>
  <outline>
    <contour>
      <point x="531" y="275" type="curve"/>
      <point x="545" y="331"/>
      <point x="575" y="453"/>
      <point x="582" y="471" type="curve"/>
      <point x="758" y="1016" type="line"/>
      <point x="1026" y="1016" type="line"/>
      <point x="651" y="0" type="line"/>
      <point x="405" y="0" type="line"/>
      <point x="8" y="1016" type="line"/>
      <point x="279" y="1016" type="line"/>
      <point x="469" y="472" type="line" smooth="yes"/>
      <point x="475" y="455"/>
      <point x="512" y="338"/>
    </contour>
  </outline>
</glyph>
<glyph name="w" format="1">
  <advance width="1573"/>
  <unicode hex="0077"/>
  <outline>
    <contour>
      <point x="36" y="1016" type="line"/>
      <point x="285" y="1016" type="line"/>
      <point x="464" y="298" type="line"/>
      <point x="663" y="1016" type="line"/>
      <point x="917" y="1016" type="line"/>
      <point x="917" y="1004"/>
      <point x="1066" y="446"/>
      <point x="1106" y="300" type="curve"/>
      <point x="1291" y="1016" type="line"/>
      <point x="1537" y="1016" type="line"/>
      <point x="1234" y="0" type="line"/>
      <point x="988" y="0" type="line"/>
      <point x="969" y="74"/>
      <point x="828" y="599"/>
      <point x="786" y="749" type="curve"/>
      <point x="571" y="0" type="line"/>
      <point x="327" y="0" type="line"/>
    </contour>
    <contour>
      <point x="787" y="1016" type="move" name="top"/>
    </contour>
  </outline>
</glyph>
<glyph name="x" format="1">
  <advance width="1045"/>
  <unicode hex="0078"/>
  <outline>
    <contour>
      <point x="523" y="688" type="line"/>
      <point x="739" y="1017" type="line"/>
      <point x="1023" y="1017" type="line"/>
      <point x="684" y="521" type="line"/>
      <point x="1034" y="0" type="line"/>
      <point x="743" y="0" type="line"/>
      <point x="523" y="355" type="line"/>
      <point x="298" y="0" type="line"/>
      <point x="11" y="0" type="line"/>
      <point x="364" y="520" type="line"/>
      <point x="28" y="1017" type="line"/>
      <point x="316" y="1017" type="line"/>
    </contour>
  </outline>
</glyph>
<glyph name="z" format="1">
  <advance width="904"/>
  <unicode hex="007A"/>
  <outline>
    <contour>
      <point x="92" y="1016" type="line"/>
      <point x="824" y="1016" type="line"/>
      <point x="824" y="840" type="line"/>
      <point x="382" y="192" type="line"/>
      <point x="840" y="192" type="line"/>
      <point x="840" y="0" type="line"/>
      <point x="70" y="0" type="line"/>
      <point x="70" y="158" type="line"/>
      <point x="537" y="832" type="line"/>
      <point x="92" y="832" type="line"/>
    </contour>
    <contour>
      <point x="445" y="1016" type="move" name="top"/>
    </contour>
  </outline>
</glyph>
<glyph name="braceright" format="1">
  <advance width="691"/>
  <unicode hex="007D"/>
  <outline>
    <contour>
      <point x="80" y="-47" type="line"/>
      <point x="206" y="-45"/>
      <point x="224" y="-17"/>
      <point x="224" y="97" type="curve" smooth="yes"/>
      <point x="224" y="340" type="line" smooth="yes"/>
      <point x="224" y="462"/>
      <point x="282" y="525"/>
      <point x="392" y="564" type="curve"/>
      <point x="281" y="605"/>
      <point x="226" y="675"/>
      <point x="224" y="796" type="curve"/>
      <point x="224" y="1037" type="line" smooth="yes"/>
      <point x="224" y="1151"/>
      <point x="207" y="1181"/>
      <point x="80" y="1183" type="curve"/>
      <point x="70" y="1183" type="line"/>
      <point x="70" y="1383" type="line"/>
      <point x="80" y="1383" type="line" smooth="yes"/>
      <point x="336" y="1383"/>
      <point x="469" y="1326"/>
      <point x="469" y="1104" type="curve" smooth="yes"/>
      <point x="469" y="848" type="line" smooth="yes"/>
      <point x="469" y="712"/>
      <point x="500" y="672"/>
      <point x="661" y="671" type="curve"/>
      <point x="671" y="671" type="line"/>
      <point x="671" y="458" type="line"/>
      <point x="661" y="458" type="line" smooth="yes"/>
      <point x="506" y="458"/>
      <point x="469" y="416"/>
      <point x="469" y="277" type="curve" smooth="yes"/>
      <point x="469" y="22" type="line" smooth="yes"/>
      <point x="469" y="-189"/>
      <point x="339" y="-245"/>
      <point x="80" y="-245" type="curve" smooth="yes"/>
      <point x="70" y="-245" type="line"/>
      <point x="70" y="-47" type="line"/>
    </contour>
  </outline>
</glyph>
<glyph name="asciitilde" format="1">
  <advance width="1139"/>
  <unicode hex="007E"/>
  <outline>
    <contour>
      <point x="112" y="571" type="line"/>
      <point x="159" y="667"/>
      <point x="237" y="750"/>
      <point x="375" y="750" type="curve" smooth="yes"/>
      <point x="453" y="750"/>
      <point x="534" y="724"/>
      <point x="610" y="691" type="curve" smooth="yes"/>
      <point x="689" y="656"/>
      <point x="747" y="635"/>
      <point x="797" y="635" type="curve" smooth="yes"/>
      <point x="864" y="635"/>
      <point x="925" y="670"/>
      <point x="999" y="753" type="curve" smooth="yes"/>
      <point x="1008" y="763" type="line"/>
      <point x="1080" y="625" type="line"/>
      <point x="1077" y="620" type="line"/>
      <point x="1029" y="530"/>
      <point x="915" y="443"/>
      <point x="783" y="443" type="curve" smooth="yes"/>
      <point x="696" y="443"/>
      <point x="632" y="470"/>
      <point x="547" y="508" type="curve"/>
      <point x="482" y="539"/>
      <point x="431" y="561"/>
      <point x="367" y="561" type="curve" smooth="yes"/>
      <point x="289" y="561"/>
      <point x="232" y="500"/>
      <point x="196" y="433" type="curve" smooth="yes"/>
      <point x="188" y="418" type="line"/>
      <point x="109" y="568" type="line"/>
    </contour>
  </outline>
</glyph>
<glyph name="cent" format="1">
  <advance width="945"/>
  <unicode hex="00A2"/>
  <outline>
    <contour>
      <point x="500" y="-183" type="line"/>
      <point x="605" y="-183" type="line"/>
      <point x="605" y="47" type="line"/>
      <point x="700" y="55"/>
      <point x="774" y="84"/>
      <point x="842" y="132" type="curve"/>
      <point x="842" y="132"/>
      <point x="784" y="304"/>
      <point x="784" y="304" type="curve"/>
      <point x="739" y="272"/>
      <point x="675" y="243"/>
      <point x="605" y="235" type="curve"/>
      <point x="605" y="880" type="line"/>
      <point x="676" y="870"/>
      <point x="743" y="842"/>
      <point x="781" y="815" type="curve"/>
      <point x="781" y="815"/>
      <point x="833" y="985"/>
      <point x="833" y="985" type="curve"/>
      <point x="772" y="1031"/>
      <point x="698" y="1059"/>
      <point x="605" y="1068" type="curve"/>
      <point x="605" y="1266" type="line"/>
      <point x="500" y="1266" type="line"/>
      <point x="500" y="1070" type="line"/>
      <point x="262" y="1051"/>
      <point x="68" y="880"/>
      <point x="67" y="574" type="curve"/>
      <point x="67" y="258"/>
      <point x="244" y="71"/>
      <point x="500" y="47" type="curve"/>
    </contour>
    <contour>
      <point x="500" y="250" type="line"/>
      <point x="382" y="280"/>
      <point x="307" y="384"/>
      <point x="307" y="576" type="curve" smooth="yes"/>
      <point x="307" y="766"/>
      <point x="390" y="861"/>
      <point x="500" y="885" type="curve"/>
    </contour>
  </outline>
</glyph>
<glyph name="divide" format="1">
  <advance width="1282"/>
  <unicode hex="00F7"/>
  <outline>
    <contour>
      <point x="519" y="18" type="line"/>
      <point x="519" y="279" type="line"/>
      <point x="779" y="279" type="line"/>
      <point x="779" y="18" type="line"/>
    </contour>
    <contour>
      <point x="154" y="444" type="line"/>
      <point x="154" y="630" type="line"/>
      <point x="1142" y="630" type="line"/>
      <point x="1142" y="444" type="line"/>
    </contour>
    <contour>
      <point x="519" y="797" type="line"/>
      <point x="519" y="1047" type="line"/>
      <point x="787" y="1047" type="line"/>
      <point x="787" y="797" type="line"/>
    </contour>
  </outline>
</glyph>
<glyph name="dotlessi" format="1">
  <advance width="480"/>
  <unicode hex="0131"/>
  <outline>
    <contour>
      <point x="109" y="0" type="line"/>
      <point x="109" y="1016" type="line"/>
      <point x="356" y="1016" type="line"/>
      <point x="356" y="0" type="line"/>
    </contour>
    <contour>
      <point x="240" y="1016" type="move" name="top"/>
    </contour>
    <contour>
      <point x="432" y="10" type="move" name="ogonek"/>
    </contour>
  </outline>
</glyph>
<glyph name="uni01C5" format="1">
  <advance width="2184"/>
  <unicode hex="01C5"/>
  <outline>
    <contour>
      <point x="1634" y="1450" type="line"/>
      <point x="1764" y="1279" type="line"/>
      <point x="1914" y="1450" type="line"/>
      <point x="2119" y="1450" type="line"/>
      <point x="1871" y="1113" type="line"/>
      <point x="1681" y="1113" type="line"/>
      <point x="1433" y="1450" type="line"/>
    </contour>
    <contour>
      <point x="1282" y="676" type="curve" smooth="yes"/>
      <point x="1282" y="238"/>
      <point x="994" y="0"/>
      <point x="551" y="0" type="curve" smooth="yes"/>
      <point x="130" y="0" type="line"/>
      <point x="130" y="1342" type="line"/>
      <point x="528" y="1342" type="line" smooth="yes"/>
      <point x="977" y="1342"/>
      <point x="1282" y="1130"/>
    </contour>
    <contour>
      <point x="539" y="1122" type="curve" smooth="yes"/>
      <point x="418" y="1122" type="line"/>
      <point x="418" y="220" type="line"/>
      <point x="565" y="220" type="line" smooth="yes"/>
      <point x="855" y="220"/>
      <point x="995" y="377"/>
      <point x="995" y="671" type="curve" smooth="yes"/>
      <point x="995" y="992"/>
      <point x="847" y="1122"/>
    </contour>
    <contour>
      <point x="2173" y="0" type="line"/>
      <point x="1406" y="0" type="line"/>
      <point x="1403" y="3" type="line"/>
      <point x="1403" y="158" type="line"/>
      <point x="1870" y="832" type="line"/>
      <point x="1425" y="832" type="line"/>
      <point x="1425" y="1017" type="line"/>
      <point x="2157" y="1017" type="line"/>
      <point x="2157" y="840" type="line"/>
      <point x="1715" y="192" type="line"/>
      <point x="2173" y="192" type="line"/>
    </contour>
  </outline>
</glyph>
<glyph name="uni01C6" format="1">
  <advance width="1958"/>
  <unicode hex="01C6"/>
  <outline>
    <contour>
      <point x="1408" y="1450" type="line"/>
      <point x="1538" y="1279" type="line"/>
      <point x="1688" y="1450" type="line"/>
      <point x="1893" y="1450" type="line"/>
      <point x="1645" y="1113" type="line"/>
      <point x="1455" y="1113" type="line"/>
      <point x="1207" y="1450" type="line"/>
    </contour>
    <contour>
      <point x="1947" y="0" type="line"/>
      <point x="1180" y="0" type="line"/>
      <point x="1177" y="3" type="line"/>
      <point x="1177" y="158" type="line"/>
      <point x="1644" y="832" type="line"/>
      <point x="1199" y="832" type="line"/>
      <point x="1199" y="1017" type="line"/>
      <point x="1931" y="1017" type="line"/>
      <point x="1931" y="840" type="line"/>
      <point x="1489" y="192" type="line"/>
      <point x="1947" y="192" type="line"/>
    </contour>
    <contour>
      <point x="330" y="512" type="curve" smooth="yes"/>
      <point x="330" y="285"/>
      <point x="422" y="179"/>
      <point x="550" y="179" type="curve" smooth="yes"/>
      <point x="689" y="179"/>
      <point x="772" y="267"/>
      <point x="774" y="497" type="curve"/>
      <point x="774" y="748"/>
      <point x="693" y="843"/>
      <point x="548" y="843" type="curve" smooth="yes"/>
      <point x="423" y="843"/>
      <point x="330" y="742"/>
    </contour>
    <contour>
      <point x="771" y="920" type="curve"/>
      <point x="767" y="963"/>
      <point x="765" y="1017"/>
      <point x="765" y="1052" type="curve" smooth="yes"/>
      <point x="765" y="1376" type="line"/>
      <point x="1019" y="1393" type="line"/>
      <point x="1019" y="0" type="line"/>
      <point x="799" y="0" type="line"/>
      <point x="775" y="117" type="line"/>
      <point x="735" y="55"/>
      <point x="663" y="-17"/>
      <point x="494" y="-17" type="curve" smooth="yes"/>
      <point x="233" y="-17"/>
      <point x="78" y="200"/>
      <point x="78" y="517" type="curve" smooth="yes"/>
      <point x="78" y="826"/>
      <point x="232" y="1041"/>
      <point x="494" y="1041" type="curve" smooth="yes"/>
      <point x="646" y="1041"/>
      <point x="727" y="978"/>
    </contour>
  </outline>
</glyph>
<glyph name="dieresistonos" format="1">
  <advance width="407"/>
  <unicode hex="0385"/>
  <outline>
    <contour>
      <point x="215" y="483" type="curve" smooth="yes"/>
      <point x="131" y="483"/>
      <point x="87" y="547"/>
      <point x="87" y="610" type="curve" smooth="yes"/>
      <point x="87" y="673"/>
      <point x="131" y="737"/>
      <point x="215" y="737" type="curve" smooth="yes"/>
      <point x="300" y="737"/>
      <point x="342" y="673"/>
      <point x="342" y="610" type="curve" smooth="yes"/>
      <point x="342" y="547"/>
      <point x="300" y="483"/>
    </contour>
    <contour>
      <point x="214.5" y="1016" type="move" name="_top"/>
    </contour>
  </outline>
</glyph>
<glyph name="Nu" format="1">
  <advance width="1367"/>
  <unicode hex="039D"/>
  <outline>
    <contour>
      <point x="1015" y="384" type="line"/>
      <point x="1014" y="461"/>
      <point x="996" y="793"/>
      <point x="996" y="801" type="curve" smooth="yes"/>
      <point x="996" y="1342" type="line"/>
      <point x="1282" y="1342" type="line"/>
      <point x="1282" y="0" type="line"/>
      <point x="975" y="0" type="line"/>
      <point x="387" y="945" type="line"/>
      <point x="387" y="945"/>
      <point x="415" y="430"/>
      <point x="415" y="409" type="curve" smooth="yes"/>
      <point x="415" y="0" type="line"/>
      <point x="130" y="0" type="line"/>
      <point x="130" y="1342" type="line"/>
      <point x="426" y="1342" type="line"/>
    </contour>
  </outline>
</glyph>
<glyph name="afii10020" format="1">
  <advance width="1283"/>
  <unicode hex="0413"/>
  <outline>
    <contour>
      <point x="938" y="1133" type="line"/>
      <point x="959" y="1335" type="line"/>
      <point x="110" y="1335" type="line"/>
      <point x="110" y="0" type="line"/>
      <point x="368" y="0" type="line"/>
      <point x="368" y="1133" type="line"/>
    </contour>
    <contour>
      <point x="642" y="1342" type="move" name="top"/>
    </contour>
  </outline>
</glyph>
<glyph name="afii10065" format="1">
  <advance width="1002"/>
  <unicode hex="0430"/>
  <outline>
    <contour>
      <point x="469" y="166" type="curve" smooth="yes"/>
      <point x="577" y="166"/>
      <point x="650" y="228"/>
      <point x="680" y="291" type="curve"/>
      <point x="680" y="474" type="line"/>
      <point x="660" y="472"/>
      <point x="602" y="466"/>
      <point x="599" y="465" type="curve"/>
      <point x="598" y="465" type="line"/>
      <point x="426" y="450"/>
      <point x="342" y="404"/>
      <point x="342" y="287" type="curve" smooth="yes"/>
      <point x="342" y="208"/>
      <point x="385" y="166"/>
    </contour>
    <contour>
      <point x="708" y="119" type="curve"/>
      <point x="642" y="38"/>
      <point x="538" y="-18"/>
      <point x="405" y="-18" type="curve" smooth="yes"/>
      <point x="229" y="-18"/>
      <point x="94" y="83"/>
      <point x="94" y="290" type="curve" smooth="yes"/>
      <point x="94" y="514"/>
      <point x="245" y="600"/>
      <point x="498" y="626" type="curve" smooth="yes"/>
      <point x="558" y="633"/>
      <point x="616" y="638"/>
      <point x="681" y="646" type="curve"/>
      <point x="681" y="689" type="line" smooth="yes"/>
      <point x="681" y="807"/>
      <point x="632" y="852"/>
      <point x="530" y="852" type="curve" smooth="yes"/>
      <point x="443" y="852"/>
      <point x="331" y="829"/>
      <point x="240" y="792" type="curve" smooth="yes"/>
      <point x="230" y="788" type="line"/>
      <point x="227" y="797" type="line" smooth="yes"/>
      <point x="225" y="802"/>
      <point x="172" y="949"/>
      <point x="170" y="953" type="curve" smooth="yes"/>
      <point x="166" y="962" type="line"/>
      <point x="176" y="966" type="line"/>
      <point x="287" y="1013"/>
      <point x="401" y="1041"/>
      <point x="548" y="1041" type="curve" smooth="yes"/>
      <point x="813" y="1041"/>
      <point x="933" y="927"/>
      <point x="933" y="660" type="curve" smooth="yes"/>
      <point x="933" y="0" type="line"/>
      <point x="743" y="0" type="line"/>
      <point x="741" y="8" type="line" smooth="yes"/>
      <point x="740" y="12"/>
      <point x="720" y="80"/>
    </contour>
  </outline>
</glyph>
<glyph name="afii10068" format="1">
  <advance width="649"/>
  <unicode hex="0433"/>
  <outline>
    <contour>
      <point x="625" y="819" type="line"/>
      <point x="625" y="1016" type="line"/>
      <point x="89" y="1016" type="line"/>
      <point x="89" y="0" type="line"/>
      <point x="336" y="0" type="line"/>
      <point x="336" y="819" type="line"/>
    </contour>
    <contour>
      <point x="325" y="1016" type="move" name="top"/>
    </contour>
  </outline>
</glyph>
<glyph name="afii10070" format="1">
  <advance width="1013"/>
  <unicode hex="0435"/>
  <outline>
    <contour>
      <point x="971" y="558" type="curve" smooth="yes"/>
      <point x="971" y="526"/>
      <point x="970" y="490"/>
      <point x="970" y="457" type="curve" smooth="yes"/>
      <point x="970" y="446" type="line"/>
      <point x="327" y="446" type="line"/>
      <point x="335" y="273"/>
      <point x="427" y="174"/>
      <point x="585" y="174" type="curve" smooth="yes"/>
      <point x="701" y="174"/>
      <point x="798" y="208"/>
      <point x="885" y="256" type="curve"/>
      <point x="897" y="263" type="line"/>
      <point x="932" y="77" type="line"/>
      <point x="927" y="73" type="line"/>
      <point x="836" y="16"/>
      <point x="732" y="-18"/>
      <point x="576" y="-18" type="curve" smooth="yes"/>
      <point x="261" y="-18"/>
      <point x="72" y="183"/>
      <point x="72" y="512" type="curve" smooth="yes"/>
      <point x="72" y="830"/>
      <point x="250" y="1040"/>
      <point x="539" y="1041" type="curve" smooth="yes"/>
      <point x="818" y="1041"/>
      <point x="971" y="840"/>
    </contour>
    <contour>
      <point x="333" y="626" type="curve"/>
      <point x="731" y="626" type="line"/>
      <point x="727" y="773"/>
      <point x="657" y="854"/>
      <point x="540" y="854" type="curve" smooth="yes"/>
      <point x="437" y="854"/>
      <point x="348" y="789"/>
    </contour>
    <contour>
      <point x="507" y="1016" type="move" name="top"/>
    </contour>
  </outline>
</glyph>
<glyph name="afii10083" format="1">
  <advance width="881"/>
  <unicode hex="0441"/>
  <outline>
    <contour>
      <point x="847" y="963" type="curve"/>
      <point x="854" y="959" type="line"/>
      <point x="794" y="781" type="line"/>
      <point x="783" y="786" type="line"/>
      <point x="719" y="820"/>
      <point x="642" y="844"/>
      <point x="570" y="840" type="curve" smooth="yes"/>
      <point x="426" y="833"/>
      <point x="324" y="735"/>
      <point x="324" y="513" type="curve" smooth="yes"/>
      <point x="324" y="292"/>
      <point x="423" y="190"/>
      <point x="568" y="183" type="curve" smooth="yes"/>
      <point x="658" y="178"/>
      <point x="742" y="217"/>
      <point x="804" y="258" type="curve"/>
      <point x="818" y="266" type="line"/>
      <point x="844" y="64" type="line"/>
      <point x="838" y="61" type="line"/>
      <point x="755" y="6"/>
      <point x="673" y="-18"/>
      <point x="550" y="-18" type="curve" smooth="yes"/>
      <point x="255" y="-18"/>
      <point x="72" y="170"/>
      <point x="72" y="516" type="curve" smooth="yes"/>
      <point x="72" y="856"/>
      <point x="276" y="1041"/>
      <point x="553" y="1041" type="curve" smooth="yes"/>
      <point x="671" y="1041"/>
      <point x="768" y="1013"/>
    </contour>
  </outline>
</glyph>
<glyph name="afii10094" format="1">
  <advance width="927"/>
  <unicode hex="044C"/>
  <outline>
    <contour>
      <point x="335" y="1017" type="line"/>
      <point x="335" y="652" type="line"/>
      <point x="542" y="652" type="line" smooth="yes"/>
      <point x="734" y="652"/>
      <point x="899" y="543"/>
      <point x="899" y="332" type="curve" smooth="yes"/>
      <point x="899" y="136"/>
      <point x="762" y="0"/>
      <point x="554" y="0" type="curve" smooth="yes"/>
      <point x="89" y="0" type="line"/>
      <point x="89" y="1017" type="line"/>
    </contour>
    <contour>
      <point x="336" y="470" type="line"/>
      <point x="336" y="188" type="line"/>
      <point x="541" y="188" type="line" smooth="yes"/>
      <point x="626" y="188"/>
      <point x="673" y="261"/>
      <point x="673" y="336" type="curve" smooth="yes"/>
      <point x="673" y="405"/>
      <point x="629" y="470"/>
      <point x="536" y="470" type="curve" smooth="yes"/>
    </contour>
  </outline>
</glyph>
<glyph name="trademark" format="1">
  <advance width="1605"/>
  <unicode hex="2122"/>
  <outline>
    <contour>
      <point x="281" y="1189" type="line"/>
      <point x="57" y="1189" type="line"/>
      <point x="56" y="1346" type="line"/>
      <point x="665" y="1346" type="line"/>
      <point x="665" y="1189" type="line"/>
      <point x="447" y="1189" type="line"/>
      <point x="447" y="595" type="line"/>
      <point x="281" y="595" type="line"/>
    </contour>
    <contour>
      <point x="703" y="1346" type="line"/>
      <point x="911" y="1346" type="line"/>
      <point x="1096" y="862" type="line"/>
      <point x="1290" y="1346" type="line"/>
      <point x="1484" y="1346" type="line"/>
      <point x="1484" y="595" type="line"/>
      <point x="1322" y="595" type="line"/>
      <point x="1322" y="1046" type="line"/>
      <point x="1143" y="610" type="line"/>
      <point x="1037" y="610" type="line"/>
      <point x="1036" y="614" type="line"/>
      <point x="868" y="1037" type="line"/>
      <point x="868" y="595" type="line"/>
      <point x="703" y="595" type="line"/>
    </contour>
  </outline>
</glyph>
<glyph name="notequal" format="1">
  <advance width="1154"/>
  <unicode hex="2260"/>
  <outline>
    <contour>
      <point x="420" y="38" type="line"/>
      <point x="256" y="63" type="line"/>
      <point x="364" y="288" type="line"/>
      <point x="132" y="288" type="line"/>
      <point x="122" y="456" type="line"/>
      <point x="445" y="456" type="line"/>
      <point x="542" y="652" type="line"/>
      <point x="132" y="652" type="line"/>
      <point x="120" y="831" type="line"/>
      <point x="620" y="831" type="line"/>
      <point x="740" y="1065" type="line"/>
      <point x="747" y="1064" type="line"/>
      <point x="747" y="1064"/>
      <point x="886" y="1044"/>
      <point x="892" y="1043" type="curve"/>
      <point x="906" y="1043" type="line"/>
      <point x="801" y="831" type="line"/>
      <point x="1044" y="831" type="line"/>
      <point x="1057" y="651" type="line"/>
      <point x="722" y="651" type="line"/>
      <point x="623" y="455" type="line"/>
      <point x="1045" y="455" type="line"/>
      <point x="1057" y="288" type="line"/>
      <point x="543" y="288" type="line"/>
    </contour>
  </outline>
</glyph>
<glyph name="fj" format="1">
  <advance width="903"/>
  <outline>
    <contour>
      <point x="655" y="-96" type="curve" smooth="yes"/>
      <point x="655" y="885" type="line"/>
      <point x="321" y="885" type="line"/>
      <point x="321" y="4" type="line"/>
      <point x="154" y="4" type="line"/>
      <point x="154" y="885" type="line"/>
      <point x="12" y="885" type="line"/>
      <point x="12" y="1011" type="line"/>
      <point x="154" y="1011" type="line"/>
      <point x="156" y="1322"/>
      <point x="237" y="1405"/>
      <point x="478" y="1405" type="curve" smooth="yes"/>
      <point x="548" y="1405" type="line"/>
      <point x="570" y="1272" type="line"/>
      <point x="477" y="1272" type="line" smooth="yes"/>
      <point x="329" y="1272"/>
      <point x="321" y="1220"/>
      <point x="321" y="1013" type="curve"/>
      <point x="823" y="1013" type="line"/>
      <point x="823" y="-111" type="line" smooth="yes"/>
      <point x="823" y="-355"/>
      <point x="766" y="-446"/>
      <point x="519" y="-446" type="curve" smooth="yes"/>
      <point x="466" y="-446" type="line"/>
      <point x="444" y="-293" type="line"/>
      <point x="500" y="-293" type="line" smooth="yes"/>
      <point x="654" y="-293"/>
      <point x="655" y="-244"/>
    </contour>
    <contour>
      <point x="823" y="1175" type="line"/>
      <point x="655" y="1175" type="line"/>
      <point x="655" y="1370" type="line"/>
      <point x="823" y="1370" type="line"/>
    </contour>
  </outline>
</glyph>
